<?xml version="1.0" encoding="UTF-8"?>
<svg version="1.1" xmlns="http://www.w3.org/2000/svg" width="32" height="32">
<path d="M0 0 C0.99 -0.33 1.98 -0.66 3 -1 C3 -0.34 3 0.32 3 1 C4.32 1.33 5.64 1.66 7 2 C7 10.25 7 18.5 7 27 C3.48283697 23.48283697 3.45323837 21.80432667 3 17 C2.13375 17.86625 1.2675 18.7325 0.375 19.625 C-0.11226562 20.11226562 -0.59953125 20.59953125 -1.1015625 21.1015625 C-2.56160097 23.62069655 -2.56160097 23.62069655 0 29 C-5.61 29 -11.22 29 -17 29 C-16.01 26.69 -15.02 24.38 -14 22 C-16.95953926 23.12258386 -17.89236019 23.81163034 -19.5 26.625 C-19.995 27.40875 -20.49 28.1925 -21 29 C-22.32 29 -23.64 29 -25 29 C-24.8897609 25.27024394 -24.75921587 21.54146417 -24.625 17.8125 C-24.5940625 16.75740234 -24.563125 15.70230469 -24.53125 14.61523438 C-24.49257813 13.59365234 -24.45390625 12.57207031 -24.4140625 11.51953125 C-24.3826416 10.58214111 -24.3512207 9.64475098 -24.31884766 8.67895508 C-23.97608307 5.79905014 -23.27055686 3.60158926 -22 1 C-15.92348245 -2.8371113 -6.01959251 -4.01306167 0 0 Z " fill="#7AA8AE" transform="translate(25,3)"/>
<path d="M0 0 C0.99 -0.33 1.98 -0.66 3 -1 C3.33 0.32 3.66 1.64 4 3 C3.34 3 2.68 3 2 3 C2.33 3.70125 2.66 4.4025 3 5.125 C4.09044562 8.26003116 4.15322643 10.70563182 4 14 C3.01 14 2.02 14 1 14 C0 13 0 13 -0.0625 9.9375 C-0.041875 8.968125 -0.02125 7.99875 0 7 C-0.66 7 -1.32 7 -2 7 C-2.33 6.34 -2.66 5.68 -3 5 C-4.98 5 -6.96 5 -9 5 C-9 5.66 -9 6.32 -9 7 C-9.66 7 -10.32 7 -11 7 C-11 6.01 -11 5.02 -11 4 C-13.00032373 2.99983813 -14.83125748 2.50603992 -17 2 C-18.64634286 4.96341714 -19.55681086 7.63176256 -20 11 C-19.67 11.66 -19.34 12.32 -19 13 C-18.34 12.67 -17.68 12.34 -17 12 C-14.6171875 12.55859375 -14.6171875 12.55859375 -11.875 13.4375 C-10.50988281 13.86869141 -10.50988281 13.86869141 -9.1171875 14.30859375 C-8.06917969 14.65083984 -8.06917969 14.65083984 -7 15 C-7 14.34 -7 13.68 -7 13 C-4.525 13.495 -4.525 13.495 -2 14 C-2.66 15.32 -3.32 16.64 -4 18 C-5.2375 17.814375 -6.475 17.62875 -7.75 17.4375 C-10.76279577 17.05288777 -13.10010827 16.9125406 -16 18 C-16.0825 18.515625 -16.165 19.03125 -16.25 19.5625 C-17.32140225 23.04455732 -19.13523605 25.87200885 -21 29 C-22.32 29 -23.64 29 -25 29 C-24.8897609 25.27024394 -24.75921587 21.54146417 -24.625 17.8125 C-24.5940625 16.75740234 -24.563125 15.70230469 -24.53125 14.61523438 C-24.49257813 13.59365234 -24.45390625 12.57207031 -24.4140625 11.51953125 C-24.3826416 10.58214111 -24.3512207 9.64475098 -24.31884766 8.67895508 C-23.97608307 5.79905014 -23.27055686 3.60158926 -22 1 C-15.92348245 -2.8371113 -6.01959251 -4.01306167 0 0 Z " fill="#448EA0" transform="translate(25,3)"/>
<path d="M0 0 C0.99 0.33 1.98 0.66 3 1 C3.33 2.65 3.66 4.3 4 6 C4.66 6 5.32 6 6 6 C6 5.34 6 4.68 6 4 C7.98 3.67 9.96 3.34 12 3 C12.33 3.99 12.66 4.98 13 6 C13.66 6 14.32 6 15 6 C15.33 9.3 15.66 12.6 16 16 C15.01 15.67 14.02 15.34 13 15 C12.67 14.34 12.34 13.68 12 13 C9.97536745 12.34786708 9.97536745 12.34786708 8 12 C8 12.66 8 13.32 8 14 C4.37 13.34 0.74 12.68 -3 12 C-3.66 12.99 -4.32 13.98 -5 15 C-6.470538 7.89239966 -6.470538 7.89239966 -4.1875 3.5625 C-2 1 -2 1 0 0 Z " fill="#88BABD" transform="translate(10,4)"/>
<path d="M0 0 C0.87527344 -0.01417969 1.75054687 -0.02835937 2.65234375 -0.04296875 C5.0625 0.1875 5.0625 0.1875 8.0625 2.1875 C9.0525 1.8575 10.0425 1.5275 11.0625 1.1875 C11.3925 2.5075 11.7225 3.8275 12.0625 5.1875 C11.4025 5.1875 10.7425 5.1875 10.0625 5.1875 C10.3925 5.88875 10.7225 6.59 11.0625 7.3125 C12.15294562 10.44753116 12.21572643 12.89313182 12.0625 16.1875 C11.0725 16.1875 10.0825 16.1875 9.0625 16.1875 C8.0625 15.1875 8.0625 15.1875 8 12.125 C8.0309375 10.6709375 8.0309375 10.6709375 8.0625 9.1875 C7.4025 9.1875 6.7425 9.1875 6.0625 9.1875 C5.7325 8.5275 5.4025 7.8675 5.0625 7.1875 C3.0825 7.1875 1.1025 7.1875 -0.9375 7.1875 C-0.9375 7.8475 -0.9375 8.5075 -0.9375 9.1875 C-1.5975 9.1875 -2.2575 9.1875 -2.9375 9.1875 C-2.9375 8.1975 -2.9375 7.2075 -2.9375 6.1875 C-5.05535113 5.06964887 -5.05535113 5.06964887 -7.9375 4.1875 C-7.6075 3.1975 -7.2775 2.2075 -6.9375 1.1875 C-4.47380468 -0.04434766 -2.7480499 0.02017658 0 0 Z " fill="#77C2C6" transform="translate(16.9375,0.8125)"/>
<path d="M0 0 C3 0 3 0 6 2 C6.33 3.65 6.66 5.3 7 7 C1.39 7 -4.22 7 -10 7 C-9.01 5.02 -8.02 3.04 -7 1 C-6.67 1.66 -6.34 2.32 -6 3 C-4.68 3 -3.36 3 -2 3 C-1.34 2.01 -0.68 1.02 0 0 Z " fill="#B6B6BC" transform="translate(18,25)"/>
<path d="M0 0 C0.33 0 0.66 0 1 0 C1.03738281 0.69867188 1.07476562 1.39734375 1.11328125 2.1171875 C1.17902344 3.02726563 1.24476562 3.93734375 1.3125 4.875 C1.37050781 5.77992187 1.42851563 6.68484375 1.48828125 7.6171875 C1.7882039 10.36221601 1.7882039 10.36221601 5 12 C5 12.66 5 13.32 5 14 C5.66 14.33 6.32 14.66 7 15 C5.68 17.64 4.36 20.28 3 23 C1.68 23 0.36 23 -1 23 C-0.67 15.41 -0.34 7.82 0 0 Z " fill="#5C92A6" transform="translate(1,9)"/>
<path d="M0 0 C6.75 0.875 6.75 0.875 9 2 C9 1.34 9 0.68 9 0 C10.65 0.33 12.3 0.66 14 1 C13.34 2.32 12.68 3.64 12 5 C10.783125 4.814375 9.56625 4.62875 8.3125 4.4375 C4.97022061 4.01006818 2.28031583 4.07741117 -1 5 C-1.33 4.01 -1.66 3.02 -2 2 C-1.34 2 -0.68 2 0 2 C0 1.34 0 0.68 0 0 Z " fill="#483F4D" transform="translate(9,16)"/>
<path d="M0 0 C0 0.66 0 1.32 0 2 C0.66 2 1.32 2 2 2 C2.33 5.3 2.66 8.6 3 12 C-0.85772618 9.42818254 -1.56426362 7.30720915 -3 3 C-4.32 3 -5.64 3 -7 3 C-7 2.01 -7 1.02 -7 0 C-3.98968256 -0.93423645 -3.13349732 -1.04449911 0 0 Z " fill="#80C9CA" transform="translate(23,8)"/>
<path d="M0 0 C0.66 0 1.32 0 2 0 C2.33 1.32 2.66 2.64 3 4 C2.34 4 1.68 4 1 4 C1.33 4.70125 1.66 5.4025 2 6.125 C3.09044562 9.26003116 3.15322643 11.70563182 3 15 C2.01 15 1.02 15 0 15 C-1.78387338 9.85824731 -2.200503 6.45683182 -1 1 C-0.67 0.67 -0.34 0.34 0 0 Z " fill="#3B566E" transform="translate(26,2)"/>
<path d="M0 0 C0.99 0.33 1.98 0.66 3 1 C3 5.62 3 10.24 3 15 C2.01 15.495 2.01 15.495 1 16 C-1.11161731 6.58997722 -1.11161731 6.58997722 -2 2 C-1.34 2 -0.68 2 0 2 C0 1.34 0 0.68 0 0 Z " fill="#76C2C5" transform="translate(29,4)"/>
<path d="M0 0 C0.5775 0.309375 1.155 0.61875 1.75 0.9375 C-1.25 2.9375 -1.25 2.9375 -5.25 2.9375 C-5.58 3.5975 -5.91 4.2575 -6.25 4.9375 C-9.25 4.9375 -9.25 4.9375 -11.25 3.9375 C-11 2.0625 -11 2.0625 -10.25 -0.0625 C-6.4248038 -2.83246966 -4.01238219 -1.89473604 0 0 Z " fill="#EBD7CE" transform="translate(19.25,21.0625)"/>
<path d="M0 0 C3 1 3 1 4 3 C4.13415472 5.6723621 4.04318541 8.32250488 4 11 C3.34 11 2.68 11 2 11 C1.67 9.35 1.34 7.7 1 6 C-0.32 5.67 -1.64 5.34 -3 5 C-2.625 3.0625 -2.625 3.0625 -2 1 C-1.34 0.67 -0.68 0.34 0 0 Z " fill="#85D1D1" transform="translate(10,4)"/>
<path d="M0 0 C2 3 2 3 3 5 C3.99 4.01 4.98 3.02 6 2 C6.33 2.99 6.66 3.98 7 5 C6.34 5 5.68 5 5 5 C5.99 6.485 5.99 6.485 7 8 C6.625 10.1875 6.625 10.1875 6 12 C6 11.34 6 10.68 6 10 C5.34 10 4.68 10 4 10 C3.34 9.01 2.68 8.02 2 7 C1.34 7.99 0.68 8.98 0 10 C0 6.7 0 3.4 0 0 Z " fill="#40788C" transform="translate(2,13)"/>
<path d="M0 0 C0.33 0 0.66 0 1 0 C1.03738281 0.69867188 1.07476562 1.39734375 1.11328125 2.1171875 C1.21189453 3.48230469 1.21189453 3.48230469 1.3125 4.875 C1.37050781 5.77992187 1.42851563 6.68484375 1.48828125 7.6171875 C1.7882039 10.36221601 1.7882039 10.36221601 5 12 C4.67 13.32 4.34 14.64 4 16 C2.68 16.33 1.36 16.66 0 17 C0 11.39 0 5.78 0 0 Z " fill="#7EAFBE" transform="translate(1,9)"/>
<path d="M0 0 C0 3 0 3 -1 6 C-1.66 5.67 -2.32 5.34 -3 5 C-4.32 6.32 -5.64 7.64 -7 9 C-7 8.34 -7 7.68 -7 7 C-7.66 7 -8.32 7 -9 7 C-9 6.34 -9 5.68 -9 5 C-8.34 5 -7.68 5 -7 5 C-7 4.34 -7 3.68 -7 3 C-4.69 2.01 -2.38 1.02 0 0 Z " fill="#838792" transform="translate(21,21)"/>
<path d="M0 0 C2.1875 2.5 2.1875 2.5 4 5 C3.67 5.66 3.34 6.32 3 7 C2.67 6.67 2.34 6.34 2 6 C-0.32817964 5.63239269 -2.6618385 5.29758419 -5 5 C-5 3.68 -5 2.36 -5 1 C-3 0 -3 0 0 0 Z " fill="#A0BEBC" transform="translate(20,11)"/>
<path d="M0 0 C3 2 3 2 3.6875 4.625 C3.790625 5.40875 3.89375 6.1925 4 7 C2.68 7 1.36 7 0 7 C-0.66 5.35 -1.32 3.7 -2 2 C-1.34 1.34 -0.68 0.68 0 0 Z " fill="#EFCBC4" transform="translate(21,25)"/>
<path d="M0 0 C0 3.3 0 6.6 0 10 C-0.99 10.495 -0.99 10.495 -2 11 C-2.33 7.7 -2.66 4.4 -3 1 C-1 0 -1 0 0 0 Z " fill="#82D1D0" transform="translate(32,9)"/>
<path d="M0 0 C1.32 0 2.64 0 4 0 C3.67 1.65 3.34 3.3 3 5 C1.35 4.67 -0.3 4.34 -2 4 C-2 3.34 -2 2.68 -2 2 C-1.34 2 -0.68 2 0 2 C0 1.34 0 0.68 0 0 Z " fill="#3C3645" transform="translate(9,16)"/>
<path d="M0 0 C-1.1858237 3.37503669 -2.27573689 5.64722731 -5 8 C-4.67 6.02 -4.34 4.04 -4 2 C-4.66 1.67 -5.32 1.34 -6 1 C-3 0 -3 0 0 0 Z " fill="#6B5E77" transform="translate(9,3)"/>
<path d="M0 0 C0.66 0 1.32 0 2 0 C2.33 1.32 2.66 2.64 3 4 C2.34 4 1.68 4 1 4 C1 4.99 1 5.98 1 7 C0.01 7 -0.98 7 -2 7 C-1.34 4.69 -0.68 2.38 0 0 Z " fill="#786580" transform="translate(26,2)"/>
<path d="M0 0 C1.5 1.125 1.5 1.125 3 3 C3.1875 6.1875 3.1875 6.1875 3 9 C1.5 7.875 1.5 7.875 0 6 C-0.1875 2.8125 -0.1875 2.8125 0 0 Z " fill="#6DA0B0" transform="translate(29,21)"/>
<path d="M0 0 C0.33 0.66 0.66 1.32 1 2 C2.32 1.67 3.64 1.34 5 1 C2.25 5.875 2.25 5.875 0 7 C0 4.69 0 2.38 0 0 Z " fill="#5EA3B6" transform="translate(0,24)"/>
<path d="M0 0 C0.99 0.33 1.98 0.66 3 1 C3 2.98 3 4.96 3 7 C2.34 7 1.68 7 1 7 C0.67 4.69 0.34 2.38 0 0 Z " fill="#9DDDD3" transform="translate(11,8)"/>
<path d="M0 0 C-0.33 0.66 -0.66 1.32 -1 2 C-4.0625 2.625 -4.0625 2.625 -7 3 C-7 2.01 -7 1.02 -7 0 C-3.98968256 -0.93423645 -3.13349732 -1.04449911 0 0 Z " fill="#97DAD2" transform="translate(23,8)"/>
</svg>
